<?xml version="1.0" standalone="no"?><svg xmlns:xlink="http://www.w3.org/1999/xlink" xmlns="http://www.w3.org/2000/svg" viewBox="0 0 1000 333.3333333333333" preserveAspectRatio="xMaxYMax slice"><g transform="scale(0.6872852233676976)"><rect x="0" y="0" width="1455" height="485" fill="#ffffff"/><rect x="0" y="0" width="242.5" height="242.5" fill="#8985ff"/><polygon points="0,0 242.5,0 242.5,242.5" fill="#6781eb"/><rect x="242.5" y="0" width="242.5" height="242.5" fill="#ffffff"/><rect x="242.5" y="0" width="121.25" height="121.25" fill="#d7f9f9"/><polygon points="242.5,0 363.75,121.25 242.5,121.25" fill="#6a64ff"/><rect x="363.75" y="0" width="121.25" height="121.25" fill="#8197ef"/><polygon points="363.75,0 485,0 485,121.25" fill="#fbfbff"/><rect x="242.5" y="121.25" width="121.25" height="121.25" fill="#a6f2f2"/><polygon points="242.5,121.25 363.75,121.25 363.75,242.5" fill="#4c46ff"/><rect x="363.75" y="121.25" width="121.25" height="121.25" fill="#7aecec"/><polygon points="363.75,121.25 485,121.25 363.75,242.5" fill="#70eaea"/><rect x="485" y="0" width="242.5" height="242.5" fill="#ffffff"/><rect x="485" y="0" width="121.25" height="121.25" fill="#3ae3e3"/><polygon points="606.25,0 606.25,121.25 485,121.25" fill="#4ee6e6"/><rect x="606.25" y="0" width="121.25" height="121.25" fill="#70eaea"/><polygon points="606.25,0 727.5,0 727.5,121.25" fill="#54e6e6"/><rect x="485" y="121.25" width="121.25" height="121.25" fill="#69eaea"/><polygon points="485,121.25 606.25,121.25 485,242.5" fill="#aeabff"/><rect x="606.25" y="121.25" width="121.25" height="121.25" fill="#e9edfc"/><polygon points="606.25,121.25 727.5,121.25 727.5,242.5" fill="#bbf5f5"/><rect x="727.5" y="0" width="242.5" height="242.5" fill="#acbaf4"/><polygon points="970,0 970,242.5 727.5,242.5" fill="#9692ff"/><rect x="970" y="0" width="242.5" height="242.5" fill="#ffffff"/><rect x="970" y="0" width="121.25" height="121.25" fill="#6beaea"/><polygon points="1091.25,0 1091.25,121.25 970,121.25" fill="#82eded"/><rect x="1091.25" y="0" width="121.25" height="121.25" fill="#35e2e2"/><polygon points="1212.5,0 1212.5,121.25 1091.25,121.25" fill="#5852ff"/><rect x="970" y="121.25" width="121.25" height="121.25" fill="#d9dffa"/><polygon points="970,121.25 1091.25,121.25 970,242.5" fill="#3255e4"/><rect x="1091.25" y="121.25" width="121.25" height="121.25" fill="#b7b4ff"/><polygon points="1091.25,121.25 1212.5,121.25 1091.25,242.5" fill="#4867e7"/><rect x="1212.5" y="0" width="242.5" height="242.5" fill="#ffffff"/><rect x="1212.5" y="0" width="121.25" height="121.25" fill="#1a41e1"/><polygon points="1212.5,0 1333.75,121.25 1212.5,121.25" fill="#fdffff"/><rect x="1333.75" y="0" width="121.25" height="121.25" fill="#7671ff"/><polygon points="1333.75,0 1455,0 1455,121.25" fill="#5c56ff"/><rect x="1212.5" y="121.25" width="121.25" height="121.25" fill="#d5f9f9"/><polygon points="1333.75,121.25 1333.75,242.5 1212.5,242.5" fill="#e6fbfb"/><rect x="1333.75" y="121.25" width="121.25" height="121.25" fill="#1c42e1"/><polygon points="1333.75,121.25 1455,121.25 1455,242.5" fill="#3c5de6"/><rect x="0" y="242.5" width="242.5" height="242.5" fill="#ffffff"/><rect x="0" y="242.5" width="121.25" height="121.25" fill="#7b76ff"/><polygon points="0,242.5 121.25,242.5 121.25,363.75" fill="#ecebff"/><rect x="121.25" y="242.5" width="121.25" height="121.25" fill="#5650ff"/><polygon points="121.25,242.5 242.5,242.5 242.5,363.75" fill="#d4d3ff"/><rect x="0" y="363.75" width="121.25" height="121.25" fill="#f4fdfd"/><polygon points="121.25,363.75 121.25,485 0,485" fill="#74ebeb"/><rect x="121.25" y="363.75" width="121.25" height="121.25" fill="#6882eb"/><polygon points="121.25,363.75 242.5,363.75 242.5,485" fill="#73ebeb"/><rect x="242.5" y="242.5" width="242.5" height="242.5" fill="#eae9ff"/><polygon points="242.5,242.5 485,242.5 485,485" fill="#7decec"/><rect x="485" y="242.5" width="242.5" height="242.5" fill="#bcb9ff"/><polygon points="485,242.5 727.5,242.5 727.5,485" fill="#aba8ff"/><rect x="727.5" y="242.5" width="242.5" height="242.5" fill="#ffffff"/><rect x="727.5" y="242.5" width="121.25" height="121.25" fill="#2c50e4"/><polygon points="727.5,242.5 848.75,242.5 848.75,363.75" fill="#d6ddfa"/><rect x="848.75" y="242.5" width="121.25" height="121.25" fill="#f6fefe"/><polygon points="848.75,242.5 970,242.5 848.75,363.75" fill="#b1f4f4"/><rect x="727.5" y="363.75" width="121.25" height="121.25" fill="#514bff"/><polygon points="727.5,363.75 848.75,363.75 727.5,485" fill="#746fff"/><rect x="848.75" y="363.75" width="121.25" height="121.25" fill="#3355e5"/><polygon points="848.75,363.75 970,363.75 848.75,485" fill="#7aecec"/><rect x="970" y="242.5" width="242.5" height="242.5" fill="#c8d1f8"/><polygon points="1212.5,242.5 1212.5,485 970,485" fill="#4039ff"/><rect x="1212.5" y="242.5" width="242.5" height="242.5" fill="#ffffff"/><rect x="1212.5" y="242.5" width="121.25" height="121.25" fill="#b4b2ff"/><polygon points="1333.75,242.5 1333.75,363.75 1212.5,363.75" fill="#4ce5e5"/><rect x="1333.75" y="242.5" width="121.25" height="121.25" fill="#e8e7ff"/><polygon points="1333.75,242.5 1455,363.75 1333.75,363.75" fill="#c4c2ff"/><rect x="1212.5" y="363.75" width="121.25" height="121.25" fill="#2be1e1"/><polygon points="1333.75,363.75 1333.75,485 1212.5,485" fill="#d4d3ff"/><rect x="1333.75" y="363.75" width="121.25" height="121.25" fill="#8b9ff0"/><polygon points="1333.75,363.75 1455,363.75 1333.75,485" fill="#4b45ff"/></g></svg>