<?xml version="1.0" standalone="no"?><svg xmlns:xlink="http://www.w3.org/1999/xlink" xmlns="http://www.w3.org/2000/svg" viewBox="0 0 1000 333.3333333333333" preserveAspectRatio="xMaxYMax slice"><g transform="scale(0.6872852233676976)"><rect x="0" y="0" width="1455" height="485" fill="#b2e6fa"/><rect x="121.25" y="121.25" width="121.25" height="121.25" fill="#b2e6fa"/><rect x="485" y="121.25" width="121.25" height="121.25" fill="#b2e6fa"/><rect x="485" y="121.25" width="60.63" height="60.63" fill="#8bb6e8"/><rect x="848.75" y="121.25" width="121.25" height="121.25" fill="#b2e6fa"/><rect x="848.75" y="181.88" width="60.63" height="60.63" fill="#679a8c"/><rect x="909.38" y="181.88" width="60.63" height="60.63" fill="#85818a"/><rect x="1212.5" y="121.25" width="121.25" height="121.25" fill="#b2e6fa"/><rect x="1273.13" y="181.88" width="60.63" height="60.63" fill="#413a71"/><rect x="1333.75" y="121.25" width="121.25" height="121.25" fill="#b2e6fa"/><rect x="121.25" y="242.5" width="121.25" height="121.25" fill="#b2e6fa"/><rect x="121.25" y="242.5" width="60.63" height="60.63" fill="#d3bc5d"/><rect x="181.88" y="242.5" width="60.63" height="60.63" fill="#7ca4e1"/><rect x="121.25" y="303.13" width="60.63" height="60.63" fill="#96a6b4"/><rect x="181.88" y="303.13" width="60.63" height="60.63" fill="#8db9e9"/><rect x="242.5" y="242.5" width="121.25" height="121.25" fill="#b2e6fa"/><rect x="242.5" y="242.5" width="60.63" height="60.63" fill="#8cbfc2"/><rect x="303.13" y="242.5" width="60.63" height="60.63" fill="#3c6f4d"/><rect x="242.5" y="303.13" width="60.63" height="60.63" fill="#46795c"/><rect x="303.13" y="303.13" width="60.63" height="60.63" fill="#94c1ec"/><rect x="485" y="242.5" width="121.25" height="121.25" fill="#b2e6fa"/><rect x="485" y="242.5" width="60.63" height="60.63" fill="#b4e3ef"/><rect x="545.63" y="242.5" width="60.63" height="60.63" fill="#6fa398"/><rect x="545.63" y="303.13" width="60.63" height="60.63" fill="#6a4548"/><rect x="606.25" y="242.5" width="121.25" height="121.25" fill="#b2e6fa"/><rect x="606.25" y="303.13" width="60.63" height="60.63" fill="#5e2a2a"/><rect x="666.88" y="303.13" width="60.63" height="60.63" fill="#545787"/><rect x="727.5" y="242.5" width="121.25" height="121.25" fill="#b2e6fa"/><rect x="848.75" y="242.5" width="121.25" height="121.25" fill="#b2e6fa"/><rect x="848.75" y="242.5" width="60.63" height="60.63" fill="#d7b84d"/><rect x="909.38" y="242.5" width="60.63" height="60.63" fill="#c5cea2"/><rect x="848.75" y="303.13" width="60.63" height="60.63" fill="#5a8d7a"/><rect x="909.38" y="303.13" width="60.63" height="60.63" fill="#5b2221"/><rect x="970" y="242.5" width="121.25" height="121.25" fill="#b2e6fa"/><rect x="970" y="242.5" width="60.63" height="60.63" fill="#7e727a"/><rect x="1030.63" y="242.5" width="60.63" height="60.63" fill="#548770"/><rect x="1030.63" y="303.13" width="60.63" height="60.63" fill="#65719c"/><rect x="0" y="363.75" width="121.25" height="121.25" fill="#b2e6fa"/><rect x="0" y="363.75" width="60.63" height="60.63" fill="#95a5b2"/><rect x="60.63" y="363.75" width="60.63" height="60.63" fill="#5b8f7b"/><rect x="0" y="424.38" width="60.63" height="60.63" fill="#c1d3b1"/><rect x="60.63" y="424.38" width="60.63" height="60.63" fill="#a4d1e9"/><rect x="121.25" y="363.75" width="121.25" height="121.25" fill="#b2e6fa"/><rect x="121.25" y="363.75" width="60.63" height="60.63" fill="#83ace4"/><rect x="181.88" y="363.75" width="60.63" height="60.63" fill="#95c3ed"/><rect x="121.25" y="424.38" width="60.63" height="60.63" fill="#6486d6"/><rect x="181.88" y="424.38" width="60.63" height="60.63" fill="#d5ba53"/><rect x="242.5" y="363.75" width="121.25" height="121.25" fill="#b2e6fa"/><rect x="242.5" y="363.75" width="60.63" height="60.63" fill="#4d4c7f"/><rect x="303.13" y="363.75" width="60.63" height="60.63" fill="#aee2f8"/><rect x="242.5" y="424.38" width="60.63" height="60.63" fill="#cec375"/><rect x="303.13" y="424.38" width="60.63" height="60.63" fill="#585d8c"/><rect x="363.75" y="363.75" width="121.25" height="121.25" fill="#b2e6fa"/><rect x="363.75" y="363.75" width="60.63" height="60.63" fill="#919ba8"/><rect x="424.38" y="363.75" width="60.63" height="60.63" fill="#a1cde6"/><rect x="363.75" y="424.38" width="60.63" height="60.63" fill="#8abec0"/><rect x="424.38" y="424.38" width="60.63" height="60.63" fill="#a0bece"/><rect x="485" y="363.75" width="121.25" height="121.25" fill="#b2e6fa"/><rect x="485" y="363.75" width="60.63" height="60.63" fill="#79a0df"/><rect x="545.63" y="363.75" width="60.63" height="60.63" fill="#9fd3de"/><rect x="485" y="424.38" width="60.63" height="60.63" fill="#d5b953"/><rect x="545.63" y="424.38" width="60.63" height="60.63" fill="#6e4d50"/><rect x="606.25" y="363.75" width="121.25" height="121.25" fill="#b2e6fa"/><rect x="606.25" y="363.75" width="60.63" height="60.63" fill="#5e9280"/><rect x="666.88" y="363.75" width="60.63" height="60.63" fill="#8b8e99"/><rect x="606.25" y="424.38" width="60.63" height="60.63" fill="#a2c1d1"/><rect x="666.88" y="424.38" width="60.63" height="60.63" fill="#5776d0"/><rect x="727.5" y="363.75" width="121.25" height="121.25" fill="#b2e6fa"/><rect x="727.5" y="363.75" width="60.63" height="60.63" fill="#b7e0e3"/><rect x="788.13" y="363.75" width="60.63" height="60.63" fill="#4a7d62"/><rect x="727.5" y="424.38" width="60.63" height="60.63" fill="#396c49"/><rect x="788.13" y="424.38" width="60.63" height="60.63" fill="#653a3b"/><rect x="848.75" y="363.75" width="121.25" height="121.25" fill="#b2e6fa"/><rect x="848.75" y="363.75" width="60.63" height="60.63" fill="#badcd4"/><rect x="909.38" y="363.75" width="60.63" height="60.63" fill="#bdd8c6"/><rect x="848.75" y="424.38" width="60.63" height="60.63" fill="#839fc1"/><rect x="909.38" y="424.38" width="60.63" height="60.63" fill="#6385d5"/><rect x="970" y="363.75" width="121.25" height="121.25" fill="#b2e6fa"/><rect x="970" y="363.75" width="60.63" height="60.63" fill="#9dd1db"/><rect x="1030.63" y="363.75" width="60.63" height="60.63" fill="#91bdea"/><rect x="970" y="424.38" width="60.63" height="60.63" fill="#8fb1d0"/><rect x="1030.63" y="424.38" width="60.63" height="60.63" fill="#abdef7"/><rect x="1091.25" y="363.75" width="121.25" height="121.25" fill="#b2e6fa"/><rect x="1091.25" y="363.75" width="60.63" height="60.63" fill="#bdd8c7"/><rect x="1151.88" y="363.75" width="60.63" height="60.63" fill="#bed7c1"/><rect x="1091.25" y="424.38" width="60.63" height="60.63" fill="#4b4a7d"/><rect x="1151.88" y="424.38" width="60.63" height="60.63" fill="#81b5b3"/><rect x="1212.5" y="363.75" width="121.25" height="121.25" fill="#b2e6fa"/><rect x="1212.5" y="363.75" width="60.63" height="60.63" fill="#93c7cd"/><rect x="1273.13" y="363.75" width="60.63" height="60.63" fill="#95a4b1"/><rect x="1212.5" y="424.38" width="60.63" height="60.63" fill="#a7d5ed"/><rect x="1273.13" y="424.38" width="60.63" height="60.63" fill="#a6ccdd"/><rect x="1333.75" y="363.75" width="121.25" height="121.25" fill="#b2e6fa"/><rect x="1333.75" y="363.75" width="60.63" height="60.63" fill="#c8ca91"/><rect x="1394.38" y="363.75" width="60.63" height="60.63" fill="#5c2323"/><rect x="1333.75" y="424.38" width="60.63" height="60.63" fill="#d5b953"/><rect x="1394.38" y="424.38" width="60.63" height="60.63" fill="#516fcd"/></g></svg>