<?xml version="1.0" standalone="no"?><svg xmlns:xlink="http://www.w3.org/1999/xlink" xmlns="http://www.w3.org/2000/svg" viewBox="0 0 1000 333.3333333333333" preserveAspectRatio="xMaxYMax slice"><g transform="scale(0.6872852233676976)"><rect x="0" y="0" width="1455" height="485" fill="#ffffff"/><rect x="0" y="0" width="121.25" height="121.25" fill="#6b84ec"/><g transform="translate(0,0) scale(6.0625) rotate(0)"><rect width="2" height="20" fill="#aad9ec"/><rect x="4" width="2" height="20" fill="#aad9ec"/><rect x="8" width="2" height="20" fill="#aad9ec"/><rect x="12" width="2" height="20" fill="#aad9ec"/><rect x="16" width="2" height="20" fill="#aad9ec"/></g><rect x="121.25" y="0" width="121.25" height="121.25" fill="#ffffff"/><g transform="translate(121.25,0) scale(6.0625) rotate(0)"><path d="M10 0H20L0 20V10L10 0Z" fill="#f8fefe"/><path d="M20 10V20H10L20 10Z" fill="#f8fefe"/></g><rect x="242.5" y="0" width="121.25" height="121.25" fill="#bce1f0"/><g transform="translate(242.5,0) scale(6.0625) rotate(0)"><rect width="20" height="2" fill="#adf8f7"/><rect y="4" width="20" height="2" fill="#adf8f7"/><rect y="8" width="20" height="2" fill="#adf8f7"/><rect y="12" width="20" height="2" fill="#adf8f7"/><rect y="16" width="20" height="2" fill="#adf8f7"/></g><rect x="363.75" y="0" width="121.25" height="121.25" fill="#e1e6fb"/><g transform="translate(363.75,0) scale(6.0625) rotate(0)"><rect width="2" height="20" fill="#b6dfef"/><rect x="4" width="2" height="20" fill="#b6dfef"/><rect x="8" width="2" height="20" fill="#b6dfef"/><rect x="12" width="2" height="20" fill="#b6dfef"/><rect x="16" width="2" height="20" fill="#b6dfef"/></g><rect x="485" y="0" width="121.25" height="121.25" fill="#ffffff"/><rect x="485" y="0" width="60.63" height="60.63" fill="#9bd3e9"/><polygon points="485,0 545.63,60.63 485,60.63" fill="#69bcde"/><rect x="545.63" y="0" width="60.63" height="60.63" fill="#c0e3f1"/><g transform="translate(545.63,0) scale(3.0315000000000003) rotate(0)"><rect width="20" height="2" fill="#bdf9f8"/><rect y="4" width="20" height="2" fill="#bdf9f8"/><rect y="8" width="20" height="2" fill="#bdf9f8"/><rect y="12" width="20" height="2" fill="#bdf9f8"/><rect y="16" width="20" height="2" fill="#bdf9f8"/></g><rect x="485" y="60.63" width="60.63" height="60.63" fill="#f5fefe"/><g transform="translate(485,60.63) scale(3.0315000000000003) rotate(0)"><path d="M5 0H10L5 5L0 10V5L5 0Z" fill="#4f6ce8"/><path d="M20 15V20H15L20 15Z" fill="#4f6ce8"/><path d="M20 5V10L15 15L10 20H5L20 5Z" fill="#4f6ce8"/><path d="M15 0H20L5 15.0002L0 20.0002V15.0002L15 0Z" fill="#4f6ce8"/></g><rect x="545.63" y="60.63" width="60.63" height="60.63" fill="#5fb8db"/><g transform="translate(545.63,60.63) scale(3.0315000000000003) rotate(0)"><path d="M10 0H20L0 20V10L10 0Z" fill="#9cadf2"/><path d="M20 10V20H10L20 10Z" fill="#9cadf2"/></g><rect x="606.25" y="0" width="121.25" height="121.25" fill="#4d6be8"/><g transform="translate(606.25,0) scale(6.0625) rotate(0)"><path d="M5 0H10L5 5L0 10V5L5 0Z" fill="#65bbdd"/><path d="M20 15V20H15L20 15Z" fill="#65bbdd"/><path d="M20 5V10L15 15L10 20H5L20 5Z" fill="#65bbdd"/><path d="M15 0H20L5 15.0002L0 20.0002V15.0002L15 0Z" fill="#65bbdd"/></g><rect x="727.5" y="0" width="121.25" height="121.25" fill="#8c9ff0"/><g transform="translate(727.5,0) scale(6.0625) rotate(0)"><path d="M10 0H20L0 20V10L10 0Z" fill="#e9edfc"/><path d="M20 10V20H10L20 10Z" fill="#e9edfc"/></g><rect x="848.75" y="0" width="121.25" height="121.25" fill="#dbfcfb"/><g transform="translate(848.75,0) scale(6.0625) rotate(0)"><path d="M10 0H20L0 20V10L10 0Z" fill="#f8fefe"/><path d="M20 10V20H10L20 10Z" fill="#f8fefe"/></g><rect x="970" y="0" width="121.25" height="121.25" fill="#ffffff"/><rect x="970" y="0" width="60.63" height="60.63" fill="#9cd3e9"/><g transform="translate(970,0) scale(3.0315000000000003) rotate(0)"><path d="M5 0H10L5 5L0 10V5L5 0Z" fill="#e0fcfc"/><path d="M20 15V20H15L20 15Z" fill="#e0fcfc"/><path d="M20 5V10L15 15L10 20H5L20 5Z" fill="#e0fcfc"/><path d="M15 0H20L5 15.0002L0 20.0002V15.0002L15 0Z" fill="#e0fcfc"/></g><rect x="1030.63" y="0" width="60.63" height="60.63" fill="#b7dfef"/><g transform="translate(1030.63,0) scale(3.0315000000000003) rotate(0)"><path d="M10 0H20L0 20V10L10 0Z" fill="#e4e8fb"/><path d="M20 10V20H10L20 10Z" fill="#e4e8fb"/></g><rect x="970" y="60.63" width="60.63" height="60.63" fill="#eafdfd"/><g transform="translate(970,60.63) scale(3.0315000000000003) rotate(0)"><rect width="20" height="2" fill="#21ebe8"/><rect y="4" width="20" height="2" fill="#21ebe8"/><rect y="8" width="20" height="2" fill="#21ebe8"/><rect y="12" width="20" height="2" fill="#21ebe8"/><rect y="16" width="20" height="2" fill="#21ebe8"/></g><rect x="1030.63" y="60.63" width="60.63" height="60.63" fill="#57f0ee"/><g transform="translate(1030.63,60.63) scale(3.0315000000000003) rotate(0)"><path d="M10 0H20L0 20V10L10 0Z" fill="#62b9dc"/><path d="M20 10V20H10L20 10Z" fill="#62b9dc"/></g><rect x="1091.25" y="0" width="121.25" height="121.25" fill="#3053e4"/><g transform="translate(1091.25,0) scale(6.0625) rotate(0)"><rect width="20" height="2" fill="#e0f1f8"/><rect y="4" width="20" height="2" fill="#e0f1f8"/><rect y="8" width="20" height="2" fill="#e0f1f8"/><rect y="12" width="20" height="2" fill="#e0f1f8"/><rect y="16" width="20" height="2" fill="#e0f1f8"/></g><rect x="1212.5" y="0" width="121.25" height="121.25" fill="#ffffff"/><rect x="1212.5" y="0" width="60.63" height="60.63" fill="#59b5da"/><g transform="translate(1212.5,0) scale(3.0315000000000003) rotate(0)"><rect width="2" height="20" fill="#8bf5f3"/><rect x="4" width="2" height="20" fill="#8bf5f3"/><rect x="8" width="2" height="20" fill="#8bf5f3"/><rect x="12" width="2" height="20" fill="#8bf5f3"/><rect x="16" width="2" height="20" fill="#8bf5f3"/></g><rect x="1273.13" y="0" width="60.63" height="60.63" fill="#9df6f5"/><g transform="translate(1273.13,0) scale(3.0315000000000003) rotate(0)"><rect width="2" height="20" fill="#acf8f7"/><rect x="4" width="2" height="20" fill="#acf8f7"/><rect x="8" width="2" height="20" fill="#acf8f7"/><rect x="12" width="2" height="20" fill="#acf8f7"/><rect x="16" width="2" height="20" fill="#acf8f7"/></g><rect x="1212.5" y="60.63" width="60.63" height="60.63" fill="#b4deee"/><g transform="translate(1212.5,60.63) scale(3.0315000000000003) rotate(0)"><rect width="20" height="2" fill="#5bf0ee"/><rect y="4" width="20" height="2" fill="#5bf0ee"/><rect y="8" width="20" height="2" fill="#5bf0ee"/><rect y="12" width="20" height="2" fill="#5bf0ee"/><rect y="16" width="20" height="2" fill="#5bf0ee"/></g><rect x="1273.13" y="60.63" width="60.63" height="60.63" fill="#6cbede"/><g transform="translate(1273.13,60.63) scale(3.0315000000000003) rotate(0)"><path d="M10 0H20L0 20V10L10 0Z" fill="#59b5da"/><path d="M20 10V20H10L20 10Z" fill="#59b5da"/></g><rect x="1333.75" y="0" width="121.25" height="121.25" fill="#3ceeeb"/><g transform="translate(1333.75,0) scale(6.0625) rotate(0)"><rect width="20" height="2" fill="#22ebe8"/><rect y="4" width="20" height="2" fill="#22ebe8"/><rect y="8" width="20" height="2" fill="#22ebe8"/><rect y="12" width="20" height="2" fill="#22ebe8"/><rect y="16" width="20" height="2" fill="#22ebe8"/></g><rect x="0" y="121.25" width="121.25" height="121.25" fill="#d8dffa"/><polygon points="0,121.25 121.25,242.5 0,242.5" fill="#8ea1f0"/><rect x="121.25" y="121.25" width="121.25" height="121.25" fill="#ffffff"/><rect x="121.25" y="121.25" width="60.63" height="60.63" fill="#61b9dc"/><polygon points="121.25,121.25 181.88,121.25 121.25,181.88" fill="#dafcfb"/><rect x="181.88" y="121.25" width="60.63" height="60.63" fill="#1c42e1"/><g transform="translate(181.88,121.25) scale(3.0315000000000003) rotate(0)"><path d="M5 0H10L5 5L0 10V5L5 0Z" fill="#e8f5fa"/><path d="M20 15V20H15L20 15Z" fill="#e8f5fa"/><path d="M20 5V10L15 15L10 20H5L20 5Z" fill="#e8f5fa"/><path d="M15 0H20L5 15.0002L0 20.0002V15.0002L15 0Z" fill="#e8f5fa"/></g><rect x="121.25" y="181.88" width="60.63" height="60.63" fill="#97f6f4"/><g transform="translate(121.25,181.88) scale(3.0315000000000003) rotate(0)"><path d="M10 0H20L0 20V10L10 0Z" fill="#627deb"/><path d="M20 10V20H10L20 10Z" fill="#627deb"/></g><rect x="181.88" y="181.88" width="60.63" height="60.63" fill="#adf8f7"/><polygon points="242.51,181.88 242.51,242.51 181.88,242.51" fill="#1d43e2"/><rect x="242.5" y="121.25" width="121.25" height="121.25" fill="#defcfc"/><g transform="translate(242.5,121.25) scale(6.0625) rotate(0)"><rect width="20" height="2" fill="#b5f8f7"/><rect y="4" width="20" height="2" fill="#b5f8f7"/><rect y="8" width="20" height="2" fill="#b5f8f7"/><rect y="12" width="20" height="2" fill="#b5f8f7"/><rect y="16" width="20" height="2" fill="#b5f8f7"/></g><rect x="363.75" y="121.25" width="121.25" height="121.25" fill="#d8dffa"/><g transform="translate(363.75,121.25) scale(6.0625) rotate(0)"><path d="M5 0H10L5 5L0 10V5L5 0Z" fill="#6bbdde"/><path d="M20 15V20H15L20 15Z" fill="#6bbdde"/><path d="M20 5V10L15 15L10 20H5L20 5Z" fill="#6bbdde"/><path d="M15 0H20L5 15.0002L0 20.0002V15.0002L15 0Z" fill="#6bbdde"/></g><rect x="485" y="121.25" width="121.25" height="121.25" fill="#8fcde6"/><g transform="translate(485,121.25) scale(6.0625) rotate(0)"><path d="M5 0H10L5 5L0 10V5L5 0Z" fill="#e1e6fb"/><path d="M20 15V20H15L20 15Z" fill="#e1e6fb"/><path d="M20 5V10L15 15L10 20H5L20 5Z" fill="#e1e6fb"/><path d="M15 0H20L5 15.0002L0 20.0002V15.0002L15 0Z" fill="#e1e6fb"/></g><rect x="606.25" y="121.25" width="121.25" height="121.25" fill="#a7f7f6"/><g transform="translate(606.25,121.25) scale(6.0625) rotate(0)"><path d="M10 0H20L0 20V10L10 0Z" fill="#6cbede"/><path d="M20 10V20H10L20 10Z" fill="#6cbede"/></g><rect x="727.5" y="121.25" width="121.25" height="121.25" fill="#3beeeb"/><g transform="translate(727.5,121.25) scale(6.0625) rotate(0)"><path d="M5 0H10L5 5L0 10V5L5 0Z" fill="#6ebfdf"/><path d="M20 15V20H15L20 15Z" fill="#6ebfdf"/><path d="M20 5V10L15 15L10 20H5L20 5Z" fill="#6ebfdf"/><path d="M15 0H20L5 15.0002L0 20.0002V15.0002L15 0Z" fill="#6ebfdf"/></g><rect x="848.75" y="121.25" width="121.25" height="121.25" fill="#ffffff"/><rect x="848.75" y="121.25" width="60.63" height="60.63" fill="#a9f7f6"/><g transform="translate(848.75,121.25) scale(3.0315000000000003) rotate(0)"><rect width="20" height="2" fill="#dcf0f7"/><rect y="4" width="20" height="2" fill="#dcf0f7"/><rect y="8" width="20" height="2" fill="#dcf0f7"/><rect y="12" width="20" height="2" fill="#dcf0f7"/><rect y="16" width="20" height="2" fill="#dcf0f7"/></g><rect x="909.38" y="121.25" width="60.63" height="60.63" fill="#7ec6e2"/><g transform="translate(909.38,121.25) scale(3.0315000000000003) rotate(0)"><path d="M5 0H10L5 5L0 10V5L5 0Z" fill="#7bc4e2"/><path d="M20 15V20H15L20 15Z" fill="#7bc4e2"/><path d="M20 5V10L15 15L10 20H5L20 5Z" fill="#7bc4e2"/><path d="M15 0H20L5 15.0002L0 20.0002V15.0002L15 0Z" fill="#7bc4e2"/></g><rect x="848.75" y="181.88" width="60.63" height="60.63" fill="#788fee"/><polygon points="909.38,181.88 909.38,242.51 848.75,242.51" fill="#294de3"/><rect x="909.38" y="181.88" width="60.63" height="60.63" fill="#7a90ee"/><g transform="translate(909.38,181.88) scale(3.0315000000000003) rotate(0)"><path d="M10 0H20L0 20V10L10 0Z" fill="#e0e6fb"/><path d="M20 10V20H10L20 10Z" fill="#e0e6fb"/></g><rect x="970" y="121.25" width="121.25" height="121.25" fill="#feffff"/><g transform="translate(970,121.25) scale(6.0625) rotate(0)"><rect width="20" height="2" fill="#2eecea"/><rect y="4" width="20" height="2" fill="#2eecea"/><rect y="8" width="20" height="2" fill="#2eecea"/><rect y="12" width="20" height="2" fill="#2eecea"/><rect y="16" width="20" height="2" fill="#2eecea"/></g><rect x="1091.25" y="121.25" width="121.25" height="121.25" fill="#eff8fb"/><g transform="translate(1091.25,121.25) scale(6.0625) rotate(0)"><rect width="2" height="20" fill="#7bf3f2"/><rect x="4" width="2" height="20" fill="#7bf3f2"/><rect x="8" width="2" height="20" fill="#7bf3f2"/><rect x="12" width="2" height="20" fill="#7bf3f2"/><rect x="16" width="2" height="20" fill="#7bf3f2"/></g><rect x="1212.5" y="121.25" width="121.25" height="121.25" fill="#a3d6ea"/><g transform="translate(1212.5,121.25) scale(6.0625) rotate(0)"><rect width="20" height="2" fill="#4060e6"/><rect y="4" width="20" height="2" fill="#4060e6"/><rect y="8" width="20" height="2" fill="#4060e6"/><rect y="12" width="20" height="2" fill="#4060e6"/><rect y="16" width="20" height="2" fill="#4060e6"/></g><rect x="1333.75" y="121.25" width="121.25" height="121.25" fill="#aaf7f6"/><g transform="translate(1333.75,121.25) scale(6.0625) rotate(0)"><path d="M10 0H20L0 20V10L10 0Z" fill="#66bbdd"/><path d="M20 10V20H10L20 10Z" fill="#66bbdd"/></g><rect x="0" y="242.5" width="121.25" height="121.25" fill="#63f1ef"/><g transform="translate(0,242.5) scale(6.0625) rotate(0)"><rect width="2" height="20" fill="#61b9dc"/><rect x="4" width="2" height="20" fill="#61b9dc"/><rect x="8" width="2" height="20" fill="#61b9dc"/><rect x="12" width="2" height="20" fill="#61b9dc"/><rect x="16" width="2" height="20" fill="#61b9dc"/></g><rect x="121.25" y="242.5" width="121.25" height="121.25" fill="#e6f4f9"/><g transform="translate(121.25,242.5) scale(6.0625) rotate(0)"><path d="M5 0H10L5 5L0 10V5L5 0Z" fill="#abdaec"/><path d="M20 15V20H15L20 15Z" fill="#abdaec"/><path d="M20 5V10L15 15L10 20H5L20 5Z" fill="#abdaec"/><path d="M15 0H20L5 15.0002L0 20.0002V15.0002L15 0Z" fill="#abdaec"/></g><rect x="242.5" y="242.5" width="121.25" height="121.25" fill="#9cacf2"/><g transform="translate(242.5,242.5) scale(6.0625) rotate(0)"><rect width="20" height="2" fill="#dbeff7"/><rect y="4" width="20" height="2" fill="#dbeff7"/><rect y="8" width="20" height="2" fill="#dbeff7"/><rect y="12" width="20" height="2" fill="#dbeff7"/><rect y="16" width="20" height="2" fill="#dbeff7"/></g><rect x="363.75" y="242.5" width="121.25" height="121.25" fill="#a9b8f4"/><g transform="translate(363.75,242.5) scale(6.0625) rotate(0)"><path d="M10 0H20L0 20V10L10 0Z" fill="#fcfdff"/><path d="M20 10V20H10L20 10Z" fill="#fcfdff"/></g><rect x="485" y="242.5" width="121.25" height="121.25" fill="#ffffff"/><rect x="485" y="242.5" width="60.63" height="60.63" fill="#a7b6f4"/><g transform="translate(485,242.5) scale(3.0315000000000003) rotate(0)"><path d="M10 0H20L0 20V10L10 0Z" fill="#fdfdff"/><path d="M20 10V20H10L20 10Z" fill="#fdfdff"/></g><rect x="545.63" y="242.5" width="60.63" height="60.63" fill="#c9faf9"/><g transform="translate(545.63,242.5) scale(3.0315000000000003) rotate(0)"><path d="M5 0H10L5 5L0 10V5L5 0Z" fill="#e1fcfc"/><path d="M20 15V20H15L20 15Z" fill="#e1fcfc"/><path d="M20 5V10L15 15L10 20H5L20 5Z" fill="#e1fcfc"/><path d="M15 0H20L5 15.0002L0 20.0002V15.0002L15 0Z" fill="#e1fcfc"/></g><rect x="485" y="303.13" width="60.63" height="60.63" fill="#9cd3e9"/><g transform="translate(485,303.13) scale(3.0315000000000003) rotate(0)"><rect width="2" height="20" fill="#1e44e2"/><rect x="4" width="2" height="20" fill="#1e44e2"/><rect x="8" width="2" height="20" fill="#1e44e2"/><rect x="12" width="2" height="20" fill="#1e44e2"/><rect x="16" width="2" height="20" fill="#1e44e2"/></g><rect x="545.63" y="303.13" width="60.63" height="60.63" fill="#68bcdd"/><g transform="translate(545.63,303.13) scale(3.0315000000000003) rotate(0)"><rect width="20" height="2" fill="#7189ed"/><rect y="4" width="20" height="2" fill="#7189ed"/><rect y="8" width="20" height="2" fill="#7189ed"/><rect y="12" width="20" height="2" fill="#7189ed"/><rect y="16" width="20" height="2" fill="#7189ed"/></g><rect x="606.25" y="242.5" width="121.25" height="121.25" fill="#b7c3f6"/><g transform="translate(606.25,242.5) scale(6.0625) rotate(0)"><path d="M5 0H10L5 5L0 10V5L5 0Z" fill="#abb9f4"/><path d="M20 15V20H15L20 15Z" fill="#abb9f4"/><path d="M20 5V10L15 15L10 20H5L20 5Z" fill="#abb9f4"/><path d="M15 0H20L5 15.0002L0 20.0002V15.0002L15 0Z" fill="#abb9f4"/></g><rect x="727.5" y="242.5" width="121.25" height="121.25" fill="#c7d1f8"/><g transform="translate(727.5,242.5) scale(6.0625) rotate(0)"><path d="M5 0H10L5 5L0 10V5L5 0Z" fill="#97f6f4"/><path d="M20 15V20H15L20 15Z" fill="#97f6f4"/><path d="M20 5V10L15 15L10 20H5L20 5Z" fill="#97f6f4"/><path d="M15 0H20L5 15.0002L0 20.0002V15.0002L15 0Z" fill="#97f6f4"/></g><rect x="848.75" y="242.5" width="121.25" height="121.25" fill="#ddf0f7"/><g transform="translate(848.75,242.5) scale(6.0625) rotate(0)"><path d="M10 0H20L0 20V10L10 0Z" fill="#eef7fb"/><path d="M20 10V20H10L20 10Z" fill="#eef7fb"/></g><rect x="970" y="242.5" width="121.25" height="121.25" fill="#aab8f4"/><g transform="translate(970,242.5) scale(6.0625) rotate(0)"><path d="M10 0H20L0 20V10L10 0Z" fill="#1d43e2"/><path d="M20 10V20H10L20 10Z" fill="#1d43e2"/></g><rect x="1091.25" y="242.5" width="121.25" height="121.25" fill="#c0e3f1"/><polygon points="1091.25,242.5 1212.5,363.75 1091.25,363.75" fill="#64badd"/><rect x="1212.5" y="242.5" width="121.25" height="121.25" fill="#ffffff"/><rect x="1212.5" y="242.5" width="60.63" height="60.63" fill="#2decea"/><g transform="translate(1212.5,242.5) scale(3.0315000000000003) rotate(0)"><rect width="2" height="20" fill="#4defed"/><rect x="4" width="2" height="20" fill="#4defed"/><rect x="8" width="2" height="20" fill="#4defed"/><rect x="12" width="2" height="20" fill="#4defed"/><rect x="16" width="2" height="20" fill="#4defed"/></g><rect x="1273.13" y="242.5" width="60.63" height="60.63" fill="#84c8e4"/><g transform="translate(1273.13,242.5) scale(3.0315000000000003) rotate(0)"><path d="M10 0H20L0 20V10L10 0Z" fill="#f4fafc"/><path d="M20 10V20H10L20 10Z" fill="#f4fafc"/></g><rect x="1212.5" y="303.13" width="60.63" height="60.63" fill="#b9c5f6"/><g transform="translate(1212.5,303.13) scale(3.0315000000000003) rotate(0)"><rect width="2" height="20" fill="#1f45e2"/><rect x="4" width="2" height="20" fill="#1f45e2"/><rect x="8" width="2" height="20" fill="#1f45e2"/><rect x="12" width="2" height="20" fill="#1f45e2"/><rect x="16" width="2" height="20" fill="#1f45e2"/></g><rect x="1273.13" y="303.13" width="60.63" height="60.63" fill="#2d50e4"/><polygon points="1273.13,303.13 1333.7600000000002,363.76 1273.13,363.76" fill="#67f1ef"/><rect x="1333.75" y="242.5" width="121.25" height="121.25" fill="#ffffff"/><rect x="1333.75" y="242.5" width="60.63" height="60.63" fill="#54b3d9"/><g transform="translate(1333.75,242.5) scale(3.0315000000000003) rotate(0)"><rect width="2" height="20" fill="#7dc5e2"/><rect x="4" width="2" height="20" fill="#7dc5e2"/><rect x="8" width="2" height="20" fill="#7dc5e2"/><rect x="12" width="2" height="20" fill="#7dc5e2"/><rect x="16" width="2" height="20" fill="#7dc5e2"/></g><rect x="1394.38" y="242.5" width="60.63" height="60.63" fill="#b5c2f5"/><g transform="translate(1394.38,242.5) scale(3.0315000000000003) rotate(0)"><rect width="2" height="20" fill="#82f4f2"/><rect x="4" width="2" height="20" fill="#82f4f2"/><rect x="8" width="2" height="20" fill="#82f4f2"/><rect x="12" width="2" height="20" fill="#82f4f2"/><rect x="16" width="2" height="20" fill="#82f4f2"/></g><rect x="1333.75" y="303.13" width="60.63" height="60.63" fill="#5ef1ef"/><g transform="translate(1333.75,303.13) scale(3.0315000000000003) rotate(0)"><path d="M5 0H10L5 5L0 10V5L5 0Z" fill="#bdf9f8"/><path d="M20 15V20H15L20 15Z" fill="#bdf9f8"/><path d="M20 5V10L15 15L10 20H5L20 5Z" fill="#bdf9f8"/><path d="M15 0H20L5 15.0002L0 20.0002V15.0002L15 0Z" fill="#bdf9f8"/></g><rect x="1394.38" y="303.13" width="60.63" height="60.63" fill="#bce1f0"/><g transform="translate(1394.38,303.13) scale(3.0315000000000003) rotate(0)"><path d="M10 0H20L0 20V10L10 0Z" fill="#63badc"/><path d="M20 10V20H10L20 10Z" fill="#63badc"/></g><rect x="0" y="363.75" width="121.25" height="121.25" fill="#4262e6"/><g transform="translate(0,363.75) scale(6.0625) rotate(0)"><rect width="20" height="2" fill="#3b5ce6"/><rect y="4" width="20" height="2" fill="#3b5ce6"/><rect y="8" width="20" height="2" fill="#3b5ce6"/><rect y="12" width="20" height="2" fill="#3b5ce6"/><rect y="16" width="20" height="2" fill="#3b5ce6"/></g><rect x="121.25" y="363.75" width="121.25" height="121.25" fill="#90cee6"/><g transform="translate(121.25,363.75) scale(6.0625) rotate(0)"><rect width="20" height="2" fill="#879cef"/><rect y="4" width="20" height="2" fill="#879cef"/><rect y="8" width="20" height="2" fill="#879cef"/><rect y="12" width="20" height="2" fill="#879cef"/><rect y="16" width="20" height="2" fill="#879cef"/></g><rect x="242.5" y="363.75" width="121.25" height="121.25" fill="#2eecea"/><g transform="translate(242.5,363.75) scale(6.0625) rotate(0)"><path d="M10 0H20L0 20V10L10 0Z" fill="#94cfe7"/><path d="M20 10V20H10L20 10Z" fill="#94cfe7"/></g><rect x="363.75" y="363.75" width="121.25" height="121.25" fill="#bfe3f1"/><g transform="translate(363.75,363.75) scale(6.0625) rotate(0)"><rect width="2" height="20" fill="#f7f9fe"/><rect x="4" width="2" height="20" fill="#f7f9fe"/><rect x="8" width="2" height="20" fill="#f7f9fe"/><rect x="12" width="2" height="20" fill="#f7f9fe"/><rect x="16" width="2" height="20" fill="#f7f9fe"/></g><rect x="485" y="363.75" width="121.25" height="121.25" fill="#b0bdf5"/><polygon points="606.25,363.75 606.25,485 485,485" fill="#2fecea"/><rect x="606.25" y="363.75" width="121.25" height="121.25" fill="#ffffff"/><rect x="606.25" y="363.75" width="60.63" height="60.63" fill="#9fd4ea"/><g transform="translate(606.25,363.75) scale(3.0315000000000003) rotate(0)"><path d="M10 0H20L0 20V10L10 0Z" fill="#ebeefc"/><path d="M20 10V20H10L20 10Z" fill="#ebeefc"/></g><rect x="666.88" y="363.75" width="60.63" height="60.63" fill="#254ae3"/><g transform="translate(666.88,363.75) scale(3.0315000000000003) rotate(0)"><path d="M10 0H20L0 20V10L10 0Z" fill="#39edeb"/><path d="M20 10V20H10L20 10Z" fill="#39edeb"/></g><rect x="606.25" y="424.38" width="60.63" height="60.63" fill="#2e51e4"/><polygon points="606.25,424.38 666.88,424.38 666.88,485.01" fill="#c3e4f2"/><rect x="666.88" y="424.38" width="60.63" height="60.63" fill="#31edea"/><g transform="translate(666.88,424.38) scale(3.0315000000000003) rotate(0)"><path d="M10 0H20L0 20V10L10 0Z" fill="#c2faf9"/><path d="M20 10V20H10L20 10Z" fill="#c2faf9"/></g><rect x="727.5" y="363.75" width="121.25" height="121.25" fill="#ffffff"/><rect x="727.5" y="363.75" width="60.63" height="60.63" fill="#2045e2"/><g transform="translate(727.5,363.75) scale(3.0315000000000003) rotate(0)"><rect width="2" height="20" fill="#97d1e8"/><rect x="4" width="2" height="20" fill="#97d1e8"/><rect x="8" width="2" height="20" fill="#97d1e8"/><rect x="12" width="2" height="20" fill="#97d1e8"/><rect x="16" width="2" height="20" fill="#97d1e8"/></g><rect x="788.13" y="363.75" width="60.63" height="60.63" fill="#f0f8fc"/><g transform="translate(788.13,363.75) scale(3.0315000000000003) rotate(0)"><path d="M5 0H10L5 5L0 10V5L5 0Z" fill="#c7d0f8"/><path d="M20 15V20H15L20 15Z" fill="#c7d0f8"/><path d="M20 5V10L15 15L10 20H5L20 5Z" fill="#c7d0f8"/><path d="M15 0H20L5 15.0002L0 20.0002V15.0002L15 0Z" fill="#c7d0f8"/></g><rect x="727.5" y="424.38" width="60.63" height="60.63" fill="#8196ef"/><polygon points="727.5,424.38 788.13,424.38 727.5,485.01" fill="#5ab6da"/><rect x="788.13" y="424.38" width="60.63" height="60.63" fill="#1940e1"/><g transform="translate(788.13,424.38) scale(3.0315000000000003) rotate(0)"><rect width="2" height="20" fill="#66bbdd"/><rect x="4" width="2" height="20" fill="#66bbdd"/><rect x="8" width="2" height="20" fill="#66bbdd"/><rect x="12" width="2" height="20" fill="#66bbdd"/><rect x="16" width="2" height="20" fill="#66bbdd"/></g><rect x="848.75" y="363.75" width="121.25" height="121.25" fill="#b6c3f6"/><g transform="translate(848.75,363.75) scale(6.0625) rotate(0)"><path d="M5 0H10L5 5L0 10V5L5 0Z" fill="#f4fafd"/><path d="M20 15V20H15L20 15Z" fill="#f4fafd"/><path d="M20 5V10L15 15L10 20H5L20 5Z" fill="#f4fafd"/><path d="M15 0H20L5 15.0002L0 20.0002V15.0002L15 0Z" fill="#f4fafd"/></g><rect x="970" y="363.75" width="121.25" height="121.25" fill="#effefd"/><g transform="translate(970,363.75) scale(6.0625) rotate(0)"><rect width="2" height="20" fill="#e1e6fb"/><rect x="4" width="2" height="20" fill="#e1e6fb"/><rect x="8" width="2" height="20" fill="#e1e6fb"/><rect x="12" width="2" height="20" fill="#e1e6fb"/><rect x="16" width="2" height="20" fill="#e1e6fb"/></g><rect x="1091.25" y="363.75" width="121.25" height="121.25" fill="#eaf5fa"/><polygon points="1212.5,363.75 1212.5,485 1091.25,485" fill="#87cae4"/><rect x="1212.5" y="363.75" width="121.25" height="121.25" fill="#d7ddfa"/><g transform="translate(1212.5,363.75) scale(6.0625) rotate(0)"><path d="M10 0H20L0 20V10L10 0Z" fill="#96f6f4"/><path d="M20 10V20H10L20 10Z" fill="#96f6f4"/></g><rect x="1333.75" y="363.75" width="121.25" height="121.25" fill="#4eefed"/><g transform="translate(1333.75,363.75) scale(6.0625) rotate(0)"><path d="M5 0H10L5 5L0 10V5L5 0Z" fill="#4a69e7"/><path d="M20 15V20H15L20 15Z" fill="#4a69e7"/><path d="M20 5V10L15 15L10 20H5L20 5Z" fill="#4a69e7"/><path d="M15 0H20L5 15.0002L0 20.0002V15.0002L15 0Z" fill="#4a69e7"/></g></g></svg>